<svg width="748" height="128" viewBox="0 0 748 128" fill="none" xmlns="http://www.w3.org/2000/svg">
<rect width="748" height="128" stroke="black" style="stroke:black;stroke:black;stroke-opacity:1;"/>
<path fill-rule="evenodd" clip-rule="evenodd" d="M119.171 104.079V95.3282C119.171 94.5821 118.816 93.8839 118.221 93.4361L117.952 93.0826L117.628 92.7993C116.624 92.2293 116.408 92.1074 116.307 92.0578L100.568 83.1021V46.5715L115.631 38.0118C115.631 38.0118 116.686 37.4092 116.741 37.3763C116.774 37.3553 116.795 37.3422 116.816 37.3289C116.852 37.3065 116.887 37.2838 116.981 37.2227L132.659 28.3114L147.729 36.8947C148.58 37.3799 148.886 37.5519 149.022 37.6182L164.753 46.5706V58.4937C164.753 59.344 165.214 60.1298 165.962 60.5554L173.689 64.9506C175.302 65.8685 177.321 64.7226 177.32 62.8887L177.317 43.045C177.326 41.9737 177.042 40.8988 176.498 39.954C175.946 38.9995 175.15 38.2096 174.177 37.6556L173.184 37.0967L154.98 26.7386L153.988 26.1876L136.08 16.0033C135.274 15.4387 134.125 15.0625 132.958 15.0068C131.757 14.9517 130.572 15.2342 129.524 15.828L128.52 16.4134L111.311 26.1913C110.866 26.4405 110.719 26.5228 110.573 26.6053C110.501 26.6459 110.429 26.6866 110.321 26.7473L109.34 27.3125L91.3722 37.5315C90.4506 37.9699 89.5639 38.7717 88.9516 39.7474C88.3325 40.7198 88 41.8512 88 43.0099V64.8369L88.0047 86.6289C87.9941 87.697 88.278 88.772 88.8236 89.7194C89.3753 90.674 90.1736 91.4649 91.1467 92.0177L92.1337 92.5748C104.56 99.6459 110.279 102.9 110.35 102.939L111.339 103.489L115.475 106.102C117.114 107.075 119.171 105.932 119.171 104.079ZM168.379 70.7738C166.766 69.8593 164.751 71.0051 164.751 72.8373V75.0618L124.829 52.3596L123.487 51.5904C122.272 50.9001 120.772 50.9723 119.64 51.7647L118.578 52.3548L112.686 55.6918L110.311 57.0342C108.583 58.0172 108.043 60.1692 109.055 61.8874L110.406 64.1802L111.769 66.4977C112.77 68.1965 114.961 68.7265 116.701 67.7248C119.018 66.4089 119.124 66.3485 119.225 66.2796C119.231 66.2751 119.238 66.2705 119.245 66.2656L121.691 64.8816L126.529 67.6335L126.525 110.368C126.525 112.301 128.117 113.869 130.082 113.869C130.983 113.869 131.844 113.535 132.502 112.935C136.887 109.449 136.891 109.446 137.794 108.728L137.797 108.725C138.722 107.992 139.209 106.857 139.108 105.698L139.115 74.7943L167.826 91.1728C169.615 92.1872 171.621 91.5035 172.987 89.7853L176.629 86.1311C177.071 85.6852 177.318 85.0885 177.318 84.4672V77.2167C177.318 76.3651 176.856 75.5783 176.106 75.1532L168.379 70.7738Z" fill="#0EBAC5" style="fill:#0EBAC5;fill:color(display-p3 0.0549 0.7294 0.7725);fill-opacity:1;"/>
<path fill-rule="evenodd" clip-rule="evenodd" d="M203.09 84.7003C202.637 84.7003 202.241 84.5336 201.901 84.2013C201.562 83.868 201.391 83.4795 201.391 83.0357V39.7486C201.391 39.2611 201.562 38.8611 201.901 38.5507C202.241 38.2393 202.637 38.0841 203.09 38.0841H212.602C213.101 38.0841 213.508 38.2393 213.826 38.5507C214.142 38.8611 214.301 39.2611 214.301 39.7486V74.2456H234.685C235.182 74.2456 235.602 74.4113 235.941 74.7445C236.281 75.0778 236.451 75.4882 236.451 75.9767V83.0357C236.451 83.5242 236.281 83.9242 235.941 84.2346C235.602 84.545 235.182 84.7003 234.685 84.7003H203.09ZM239.506 84.7004C239.144 84.7004 238.815 84.5566 238.521 84.2671C238.226 83.9785 238.079 83.6567 238.079 83.3015C238.079 83.0358 238.102 82.8359 238.147 82.7025L253.979 40.0154C254.431 38.7279 255.337 38.0842 256.696 38.0842H267.296C268.654 38.0842 269.56 38.7279 270.013 40.0154L285.845 82.7025C285.89 82.8359 285.913 83.0358 285.913 83.3015C285.913 83.6567 285.765 83.9785 285.471 84.2671C285.176 84.5566 284.848 84.7004 284.486 84.7004H275.652C274.566 84.7004 273.795 84.2118 273.343 83.2348L270.896 76.7758H253.096L250.649 83.2348C250.196 84.2118 249.426 84.7004 248.339 84.7004H239.506ZM255.95 66.7859H268.044L261.997 49.8036L255.95 66.7859ZM292.844 84.7004C292.346 84.7004 291.927 84.5452 291.587 84.2347C291.248 83.9243 291.078 83.5243 291.078 83.0358V39.8154C291.078 39.3279 291.248 38.9165 291.587 38.5841C291.927 38.2509 292.346 38.0842 292.844 38.0842H300.523C301.654 38.0842 302.471 38.5727 302.968 39.5488L314.655 60.0601L326.41 39.5488C326.907 38.5727 327.723 38.0842 328.855 38.0842H336.533C337.032 38.0842 337.45 38.2509 337.79 38.5841C338.13 38.9165 338.3 39.3279 338.3 39.8154V83.0358C338.3 83.5243 338.13 83.9243 337.79 84.2347C337.45 84.5452 337.032 84.7004 336.533 84.7004H327.904C327.451 84.7004 327.055 84.5337 326.715 84.2014C326.376 83.8681 326.206 83.4796 326.206 83.0358V58.7946L318.868 71.9812C318.279 73.0021 317.486 73.5125 316.489 73.5125H312.821C311.914 73.5125 311.121 73.0021 310.442 71.9812L303.172 58.7946V83.0358C303.172 83.5243 303.002 83.9243 302.663 84.2347C302.323 84.5452 301.904 84.7004 301.406 84.7004H292.844ZM349.238 84.7004C348.785 84.7004 348.389 84.5337 348.05 84.2014C347.71 83.8681 347.54 83.4796 347.54 83.0358V39.8154C347.54 39.3278 347.698 38.9165 348.015 38.5841C348.332 38.2508 348.74 38.0842 349.238 38.0842H370.233C375.986 38.0842 380.266 39.2383 383.075 41.5475C385.883 43.8558 387.288 47.141 387.288 51.4032C387.288 53.5344 386.71 55.377 385.556 56.9301C384.4 58.4841 383.12 59.6163 381.716 60.3267C383.574 61.1256 385.136 62.4464 386.405 64.289C387.673 66.1316 388.307 68.2075 388.307 70.5157C388.307 74.9989 386.8 78.4851 383.788 80.9714C380.776 83.4567 376.462 84.7004 370.844 84.7004H349.238ZM368.807 56.5293C370.483 56.5293 371.774 56.0856 372.68 55.1971C373.586 54.3087 374.04 53.1555 374.04 51.7348C374.04 50.3578 373.598 49.2371 372.714 48.3715C371.831 47.5049 370.528 47.0726 368.807 47.0726H360.314V56.5293H368.807ZM369.419 75.7089C371.185 75.7089 372.556 75.209 373.53 74.2101C374.503 73.2121 374.991 71.9799 374.991 70.5144C374.991 69.0051 374.492 67.751 373.496 66.7512C372.499 65.7532 371.14 65.2533 369.419 65.2533H360.314V75.7089H369.419ZM397.279 84.7004C396.825 84.7004 396.43 84.5337 396.09 84.2014C395.75 83.8681 395.58 83.4796 395.58 83.0358V39.8154C395.58 39.3278 395.739 38.9165 396.056 38.5841C396.372 38.2508 396.78 38.0842 397.279 38.0842H415.149C421.852 38.0842 427.061 39.6487 430.776 42.7797C434.489 45.9088 436.438 50.4043 436.618 56.2644C436.664 57.5519 436.687 59.2612 436.687 61.3923C436.687 63.5234 436.664 65.2098 436.618 66.4535C436.165 78.6174 429.122 84.7004 415.488 84.7004H397.279ZM415.147 74.7098C418 74.7098 420.106 74.0442 421.466 72.712C422.824 71.3808 423.549 69.2487 423.639 66.3186C423.731 65.0312 423.775 63.3667 423.775 61.3241C423.775 59.2816 423.731 57.6389 423.639 56.3963C423.549 53.5548 422.767 51.457 421.296 50.1029C419.823 48.7488 417.661 48.0718 414.807 48.0718H408.352V74.7098H415.147ZM441.78 84.7004C441.418 84.7004 441.089 84.5566 440.795 84.2671C440.5 83.9785 440.353 83.6567 440.353 83.3015C440.353 83.0358 440.375 82.8359 440.421 82.7025L456.252 40.0154C456.705 38.7279 457.612 38.0842 458.97 38.0842H469.57C470.929 38.0842 471.834 38.7279 472.287 40.0154L488.119 82.7025C488.164 82.8359 488.186 83.0358 488.186 83.3015C488.186 83.6567 488.039 83.9785 487.745 84.2671C487.451 84.5566 487.123 84.7004 486.759 84.7004H477.927C476.84 84.7004 476.069 84.2118 475.617 83.2348L473.17 76.7758H455.368L452.922 83.2348C452.47 84.2118 451.701 84.7004 450.614 84.7004H441.78ZM458.223 66.786H470.316L464.27 49.8037L458.223 66.786Z" fill="#0EBAC5" style="fill:#0EBAC5;fill:color(display-p3 0.0549 0.7294 0.7725);fill-opacity:1;"/>
<path fill-rule="evenodd" clip-rule="evenodd" d="M502.3 85.3647C501.802 85.3647 501.384 85.2095 501.043 84.8991C500.703 84.5887 500.534 84.1887 500.534 83.7002V49.6032H488.576C488.077 49.6032 487.659 49.448 487.319 49.1376C486.979 48.8262 486.809 48.4272 486.809 47.9387V40.4798C486.809 39.9922 486.979 39.5809 487.319 39.2485C487.659 38.9152 488.077 38.7486 488.576 38.7486H525.47C525.967 38.7486 526.387 38.9152 526.727 39.2485C527.066 39.5809 527.236 39.9922 527.236 40.4798V47.9387C527.236 48.4272 527.066 48.8262 526.727 49.1376C526.387 49.448 525.967 49.6032 525.47 49.6032H513.511V83.7002C513.511 84.1887 513.341 84.5887 513.002 84.8991C512.662 85.2095 512.243 85.3647 511.746 85.3647H502.3ZM534.911 85.3648C534.459 85.3648 534.062 85.1982 533.723 84.8658C533.383 84.5325 533.213 84.144 533.213 83.7003V40.4798C533.213 39.9923 533.371 39.5809 533.689 39.2486C534.007 38.9153 534.414 38.7487 534.911 38.7487H566.981C567.48 38.7487 567.898 38.9153 568.238 39.2486C568.579 39.5809 568.749 39.9923 568.749 40.4798V47.0732C568.749 47.5617 568.579 47.9607 568.238 48.2711C567.898 48.5825 567.48 48.7377 566.981 48.7377H545.512V57.1955H565.487C565.985 57.1955 566.403 57.3622 566.744 57.6945C567.084 58.0278 567.253 58.4382 567.253 58.9267V64.9868C567.253 65.4753 567.084 65.8857 566.744 66.219C566.403 66.5513 565.985 66.7189 565.487 66.7189H545.512V75.3758H567.525C568.023 75.3758 568.443 75.5424 568.783 75.8747C569.122 76.208 569.292 76.6184 569.292 77.1069V83.7003C569.292 84.1888 569.122 84.5887 568.783 84.8992C568.443 85.2096 568.023 85.3648 567.525 85.3648H534.911ZM594.838 86.0316C590.446 86.0316 586.708 85.4107 583.627 84.1671C580.547 82.9244 578.215 81.2818 576.629 79.2383C575.044 77.1976 574.206 74.977 574.116 72.5793C574.116 72.1803 574.262 71.847 574.557 71.5803C574.851 71.3147 575.202 71.1814 575.61 71.1814H584.646C585.19 71.1814 585.632 71.2699 585.972 71.448C586.312 71.6251 586.685 71.9355 587.093 72.3793C587.682 73.4448 588.599 74.3219 589.844 75.0103C591.091 75.6988 592.754 76.0426 594.838 76.0426C597.285 76.0426 599.164 75.6759 600.478 74.9446C601.791 74.2114 602.448 73.202 602.448 71.9136C602.448 70.9823 602.108 70.2158 601.429 69.6168C600.75 69.0169 599.663 68.4837 598.169 68.018C596.673 67.5524 594.521 67.0305 591.713 66.4535C586.233 65.3879 582.133 63.7672 579.415 61.5913C576.697 59.4164 575.339 56.3083 575.339 52.2688C575.339 49.5159 576.119 47.0629 577.682 44.9099C579.245 42.7559 581.465 41.0809 584.34 39.8821C587.217 38.6832 590.558 38.0842 594.363 38.0842C598.348 38.0842 601.803 38.7613 604.725 40.1144C607.646 41.4695 609.888 43.1559 611.452 45.1756C613.014 47.1962 613.841 49.1826 613.931 51.1366C613.931 51.5356 613.795 51.8803 613.523 52.1689C613.251 52.4574 612.912 52.6012 612.505 52.6012H602.992C601.995 52.6012 601.225 52.2022 600.682 51.4023C600.409 50.4701 599.708 49.6826 598.576 49.0388C597.444 48.3951 596.039 48.0733 594.363 48.0733C592.461 48.0733 590.988 48.4065 589.946 49.0722C588.905 49.7378 588.383 50.7148 588.383 52.0022C588.383 53.2897 589.064 54.3 590.422 55.0323C591.782 55.7655 594.318 56.5082 598.032 57.2634C602.29 58.0175 605.676 58.9612 608.189 60.0934C610.704 61.2247 612.56 62.6912 613.761 64.488C614.962 66.2868 615.561 68.5627 615.561 71.3147C615.561 74.3333 614.678 76.9529 612.912 79.1726C611.146 81.3923 608.699 83.0901 605.574 84.2671C602.448 85.4441 598.869 86.0316 594.838 86.0316ZM634.317 85.3647C633.818 85.3647 633.398 85.2095 633.059 84.8991C632.719 84.5887 632.549 84.1887 632.549 83.7002V49.6032H620.592C620.093 49.6032 619.675 49.448 619.335 49.1376C618.995 48.8262 618.826 48.4272 618.826 47.9387V40.4798C618.826 39.9922 618.995 39.5809 619.335 39.2485C619.675 38.9152 620.093 38.7486 620.592 38.7486H657.485C657.984 38.7486 658.403 38.9152 658.742 39.2485C659.083 39.5809 659.253 39.9922 659.253 40.4798V47.9387C659.253 48.4272 659.083 48.8262 658.742 49.1376C658.403 49.448 657.984 49.6032 657.485 49.6032H645.527V83.7002C645.527 84.1887 645.357 84.5887 645.017 84.8991C644.678 85.2095 644.26 85.3647 643.762 85.3647H634.317Z" fill="black" style="fill:black;fill:black;fill-opacity:1;"/>
</svg>
