<svg width="1495" height="256" viewBox="0 0 1495 256" fill="none" xmlns="http://www.w3.org/2000/svg">
<rect width="1495" height="256" stroke="black" style="stroke:black;stroke:black;stroke-opacity:1;"/>
<path fill-rule="evenodd" clip-rule="evenodd" d="M238.343 207.157V189.656C238.343 188.164 237.633 186.768 236.441 185.872L235.904 185.165L235.255 184.599C233.248 183.458 232.815 183.215 232.614 183.116L201.136 165.204V92.143L231.262 75.0236C231.262 75.0236 233.373 73.8184 233.482 73.7525C233.549 73.7106 233.591 73.6844 233.633 73.6578C233.703 73.6131 233.774 73.5676 233.962 73.4454L265.319 55.6228L295.458 72.7895C297.159 73.7598 297.772 74.1038 298.044 74.2365L329.507 92.1412V115.987C329.507 117.688 330.429 119.26 331.925 120.111L347.378 128.901C350.605 130.737 354.641 128.445 354.641 124.777L354.633 85.09C354.652 82.9473 354.084 80.7976 352.995 78.908C351.892 76.9989 350.3 75.4192 348.354 74.3111L346.369 73.1934C322.05 59.3559 310.104 52.559 309.961 52.4772L307.976 51.3752L272.161 31.0067C270.549 29.8774 268.249 29.1249 265.916 29.0135C263.514 28.9034 261.144 29.4683 259.049 30.6561L257.041 31.8267L222.622 51.3825C221.732 51.881 221.439 52.0455 221.146 52.2105C221.001 52.2918 220.857 52.3732 220.642 52.4946L218.68 53.625L182.744 74.0631C180.901 74.9398 179.128 76.5433 177.903 78.4947C176.665 80.4397 176 82.7024 176 85.0198V128.674L176.009 172.258C175.988 174.394 176.556 176.544 177.647 178.439C178.751 180.348 180.347 181.93 182.293 183.035L184.267 184.149C209.121 198.292 220.559 204.8 220.7 204.879L222.679 205.977L230.951 211.204C234.227 213.15 238.343 210.865 238.343 207.157ZM336.758 140.548C333.531 138.719 329.502 141.01 329.502 144.675V149.124L249.658 103.719L246.974 102.181C244.543 100.8 241.543 100.945 239.28 102.529L237.155 103.71L225.373 110.384C222.161 112.198 221.589 112.521 221.018 112.844L220.621 113.068C217.166 115.034 216.085 119.338 218.109 122.775L220.811 127.36L223.538 131.995C225.539 135.393 229.922 136.453 233.402 134.45C238.035 131.818 238.248 131.697 238.449 131.559C238.463 131.55 238.476 131.541 238.49 131.531L243.382 128.763L253.059 134.267L253.05 219.736C253.05 223.602 256.234 226.738 260.163 226.738C261.965 226.738 263.688 226.069 265.004 224.869C272.281 219.085 273.526 218.096 274.77 217.106L275.594 216.451C277.444 214.984 278.417 212.715 278.215 210.396L278.229 148.588L335.651 181.346C339.23 183.374 343.241 182.007 345.973 178.571L353.258 171.262C354.142 170.37 354.636 169.177 354.636 167.934V153.433C354.636 151.73 353.711 150.157 352.211 149.306L336.758 140.548Z" fill="#0EBAC5" style="fill:#0EBAC5;fill:color(display-p3 0.0549 0.7294 0.7725);fill-opacity:1;"/>
<path fill-rule="evenodd" clip-rule="evenodd" d="M406.18 168.401C405.274 168.401 404.481 168.067 403.801 167.403C403.123 166.736 402.781 165.959 402.781 165.072V78.4974C402.781 77.5223 403.123 76.7224 403.801 76.1015C404.481 75.4788 405.274 75.1683 406.18 75.1683H425.205C426.202 75.1683 427.016 75.4788 427.651 76.1015C428.285 76.7224 428.601 77.5223 428.601 78.4974V147.491H469.37C470.365 147.491 471.204 147.823 471.882 148.489C472.562 149.156 472.902 149.977 472.902 150.954V165.072C472.902 166.049 472.562 166.848 471.882 167.469C471.204 168.09 470.365 168.401 469.37 168.401H406.18ZM479.012 168.401C478.288 168.401 477.629 168.113 477.042 167.534C476.451 166.957 476.158 166.313 476.158 165.603C476.158 165.072 476.205 164.672 476.294 164.405L507.957 79.0307C508.862 76.4559 510.673 75.1684 513.392 75.1684H534.591C537.308 75.1684 539.121 76.4559 540.026 79.0307L571.689 164.405C571.78 164.672 571.825 165.072 571.825 165.603C571.825 166.313 571.53 166.957 570.941 167.534C570.352 168.113 569.695 168.401 568.971 168.401H551.304C549.132 168.401 547.591 167.424 546.685 165.47L541.792 152.552H506.191L501.298 165.47C500.392 167.424 498.851 168.401 496.677 168.401H479.012ZM511.899 132.572H536.087L523.993 98.6072L511.899 132.572ZM585.689 168.401C584.692 168.401 583.854 168.09 583.174 167.469C582.496 166.849 582.156 166.049 582.156 165.072V78.6308C582.156 77.6557 582.496 76.833 583.174 76.1683C583.854 75.5017 584.692 75.1684 585.689 75.1684H601.045C603.309 75.1684 604.941 76.1455 605.936 78.0975L629.31 119.12L652.819 78.0975C653.814 76.1455 655.447 75.1684 657.71 75.1684H673.067C674.063 75.1684 674.901 75.5017 675.581 76.1683C676.259 76.833 676.599 77.6557 676.599 78.6308V165.072C676.599 166.049 676.259 166.849 675.581 167.469C674.901 168.09 674.063 168.401 673.067 168.401H655.808C654.902 168.401 654.11 168.067 653.43 167.403C652.751 166.736 652.411 165.959 652.411 165.072V116.589L637.735 142.962C636.558 145.004 634.972 146.025 632.978 146.025H625.641C623.828 146.025 622.243 145.004 620.884 142.962L606.344 116.589V165.072C606.344 166.049 606.004 166.849 605.326 167.469C604.646 168.09 603.808 168.401 602.811 168.401H585.689ZM698.475 168.401C697.57 168.401 696.777 168.067 696.099 167.403C695.419 166.736 695.079 165.959 695.079 165.072V78.6307C695.079 77.6557 695.395 76.8329 696.029 76.1682C696.664 75.5017 697.48 75.1684 698.475 75.1684H740.466C751.971 75.1684 760.532 77.4766 766.15 82.095C771.766 86.7115 774.575 93.282 774.575 101.806C774.575 106.069 773.419 109.754 771.111 112.86C768.8 115.968 766.239 118.233 763.432 119.653C767.147 121.251 770.271 123.893 772.809 127.578C775.345 131.263 776.614 135.415 776.614 140.031C776.614 148.998 773.6 155.97 767.576 160.943C761.553 165.913 752.923 168.401 741.688 168.401H698.475ZM737.613 112.059C740.965 112.059 743.547 111.171 745.36 109.394C747.171 107.617 748.079 105.311 748.079 102.47C748.079 99.7157 747.195 97.4741 745.428 95.7429C743.662 94.0098 741.056 93.1452 737.613 93.1452H720.628V112.059H737.613ZM738.837 150.418C742.37 150.418 745.112 149.418 747.059 147.42C749.006 145.424 749.981 142.96 749.981 140.029C749.981 137.01 748.984 134.502 746.991 132.502C744.997 130.506 742.281 129.507 738.837 129.507H720.628V150.418H738.837ZM794.557 168.401C793.65 168.401 792.859 168.067 792.179 167.403C791.499 166.736 791.159 165.959 791.159 165.072V78.6308C791.159 77.6557 791.477 76.833 792.111 76.1683C792.744 75.5017 793.56 75.1684 794.557 75.1684H830.297C843.704 75.1684 854.121 78.2975 861.552 84.5595C868.978 90.8176 872.876 99.8087 873.236 111.529C873.327 114.104 873.374 117.522 873.374 121.785C873.374 126.047 873.327 129.42 873.236 131.907C872.33 156.235 858.243 168.401 830.975 168.401H794.557ZM830.294 148.42C835.999 148.42 840.211 147.088 842.932 144.424C845.648 141.762 847.098 137.497 847.279 131.637C847.461 129.062 847.551 125.733 847.551 121.648C847.551 117.563 847.461 114.278 847.279 111.793C847.098 106.11 845.534 101.914 842.592 99.2058C839.646 96.4976 835.323 95.1435 829.614 95.1435H816.704V148.42H830.294ZM883.56 168.401C882.835 168.401 882.178 168.113 881.59 167.534C880.999 166.957 880.706 166.313 880.706 165.603C880.706 165.072 880.75 164.672 880.842 164.405L912.503 79.0307C913.41 76.4558 915.223 75.1684 917.94 75.1684H939.139C941.857 75.1684 943.668 76.4558 944.574 79.0307L976.237 164.405C976.328 164.672 976.371 165.072 976.371 165.603C976.371 166.313 976.077 166.957 975.489 167.534C974.902 168.113 974.245 168.401 973.518 168.401H955.854C953.679 168.401 952.138 167.424 951.233 165.47L946.34 152.552H910.736L905.844 165.47C904.94 167.424 903.401 168.401 901.227 168.401H883.56ZM916.446 132.572H940.634L928.54 98.6072L916.446 132.572Z" fill="#0EBAC5" style="fill:#0EBAC5;fill:color(display-p3 0.0549 0.7294 0.7725);fill-opacity:1;"/>
<path fill-rule="evenodd" clip-rule="evenodd" d="M1004.6 169.73C1003.6 169.73 1002.76 169.419 1002.08 168.798C1001.4 168.177 1001.06 167.378 1001.06 166.401V98.2066H977.148C976.151 98.2066 975.314 97.8962 974.633 97.2753C973.953 96.6526 973.613 95.8546 973.613 94.8776V79.9597C973.613 78.9846 973.953 78.1619 974.633 77.4972C975.314 76.8307 976.151 76.4974 977.148 76.4974H1050.94C1051.93 76.4974 1052.77 76.8307 1053.45 77.4972C1054.13 78.1619 1054.47 78.9846 1054.47 79.9597V94.8776C1054.47 95.8546 1054.13 96.6526 1053.45 97.2753C1052.77 97.8962 1051.93 98.2066 1050.94 98.2066H1027.02V166.401C1027.02 167.378 1026.68 168.177 1026 168.798C1025.32 169.419 1024.48 169.73 1023.49 169.73H1004.6ZM1069.82 169.73C1068.91 169.73 1068.12 169.396 1067.44 168.732C1066.76 168.065 1066.42 167.288 1066.42 166.401V79.9597C1066.42 78.9846 1066.74 78.1619 1067.37 77.4972C1068.01 76.8307 1068.82 76.4974 1069.82 76.4974H1133.96C1134.96 76.4974 1135.79 76.8307 1136.47 77.4972C1137.15 78.1619 1137.49 78.9846 1137.49 79.9597V93.1464C1137.49 94.1234 1137.15 94.9214 1136.47 95.5422C1135.79 96.165 1134.96 96.4754 1133.96 96.4754H1091.02V113.391H1130.97C1131.97 113.391 1132.8 113.724 1133.48 114.389C1134.16 115.056 1134.5 115.876 1134.5 116.853V128.974C1134.5 129.951 1134.16 130.771 1133.48 131.438C1132.8 132.103 1131.97 132.438 1130.97 132.438H1091.02V149.752H1135.05C1136.04 149.752 1136.88 150.085 1137.56 150.75C1138.24 151.416 1138.58 152.237 1138.58 153.214V166.401C1138.58 167.378 1138.24 168.177 1137.56 168.798C1136.88 169.419 1136.04 169.73 1135.05 169.73H1069.82ZM1189.67 171.063C1180.89 171.063 1173.41 169.822 1167.25 167.334C1161.09 164.849 1156.43 161.564 1153.25 157.477C1150.08 153.395 1148.41 148.954 1148.23 144.159C1148.23 143.361 1148.52 142.694 1149.11 142.161C1149.7 141.629 1150.4 141.363 1151.22 141.363H1169.29C1170.38 141.363 1171.26 141.54 1171.94 141.896C1172.62 142.25 1173.37 142.871 1174.18 143.759C1175.36 145.89 1177.19 147.644 1179.69 149.021C1182.18 150.398 1185.5 151.085 1189.67 151.085C1194.57 151.085 1198.33 150.352 1200.95 148.889C1203.58 147.423 1204.89 145.404 1204.89 142.827C1204.89 140.965 1204.21 139.432 1202.85 138.234C1201.5 137.034 1199.32 135.967 1196.33 135.036C1193.34 134.105 1189.04 133.061 1183.42 131.907C1172.46 129.776 1164.26 126.534 1158.83 122.183C1153.39 117.833 1150.67 111.617 1150.67 103.538C1150.67 98.0319 1152.23 93.1259 1155.36 88.8199C1158.49 84.5119 1162.93 81.1619 1168.68 78.7642C1174.43 76.3664 1181.11 75.1685 1188.72 75.1685C1196.69 75.1685 1203.6 76.5226 1209.45 79.2289C1215.29 81.939 1219.77 85.3118 1222.9 89.3512C1226.02 93.3926 1227.68 97.3653 1227.86 101.273C1227.86 102.071 1227.59 102.761 1227.04 103.338C1226.5 103.915 1225.82 104.202 1225.01 104.202H1205.98C1203.99 104.202 1202.45 103.404 1201.36 101.805C1200.81 99.9402 1199.41 98.3652 1197.15 97.0777C1194.88 95.7903 1192.07 95.1466 1188.72 95.1466C1184.92 95.1466 1181.97 95.8132 1179.89 97.1444C1177.81 98.4756 1176.76 100.43 1176.76 103.004C1176.76 105.579 1178.12 107.6 1180.84 109.065C1183.56 110.531 1188.63 112.017 1196.06 113.527C1204.58 115.035 1211.35 116.922 1216.37 119.187C1221.4 121.449 1225.12 124.382 1227.52 127.976C1229.92 131.574 1231.12 136.125 1231.12 141.629C1231.12 147.667 1229.35 152.906 1225.82 157.345C1222.29 161.785 1217.4 165.18 1211.14 167.534C1204.89 169.888 1197.73 171.063 1189.67 171.063ZM1268.63 169.73C1267.63 169.73 1266.79 169.419 1266.12 168.798C1265.43 168.177 1265.09 167.378 1265.09 166.401V98.2066H1241.18C1240.18 98.2066 1239.35 97.8962 1238.67 97.2753C1237.99 96.6526 1237.65 95.8546 1237.65 94.8776V79.9597C1237.65 78.9846 1237.99 78.1619 1238.67 77.4972C1239.35 76.8307 1240.18 76.4974 1241.18 76.4974H1314.97C1315.96 76.4974 1316.8 76.8307 1317.48 77.4972C1318.16 78.1619 1318.5 78.9846 1318.5 79.9597V94.8776C1318.5 95.8546 1318.16 96.6526 1317.48 97.2753C1316.8 97.8962 1315.96 98.2066 1314.97 98.2066H1291.05V166.401C1291.05 167.378 1290.71 168.177 1290.03 168.798C1289.35 169.419 1288.52 169.73 1287.52 169.73H1268.63Z" fill="black" style="fill:black;fill:black;fill-opacity:1;"/>
</svg>
