<svg width="146" height="25" viewBox="0 0 146 25" fill="none" xmlns="http://www.w3.org/2000/svg">
<rect width="146" height="25" stroke="black" style="stroke:black;stroke:black;stroke-opacity:1;"/>
<path fill-rule="evenodd" clip-rule="evenodd" d="M24.0382 20.2553V18.5603C24.0382 18.4158 23.9694 18.2805 23.854 18.1938L23.802 18.1253L23.7391 18.0704C23.5448 17.96 23.5028 17.9364 23.4833 17.9268L20.4345 16.192V9.11569L23.3524 7.4576C23.3524 7.4576 23.5568 7.34087 23.5674 7.33449C23.5739 7.33043 23.5779 7.32789 23.582 7.32532C23.5888 7.32098 23.5956 7.31658 23.6139 7.30474L26.651 5.57854L29.57 7.24121C29.7348 7.33519 29.7942 7.36852 29.8205 7.38136L32.8679 9.11551V11.4251C32.8679 11.5898 32.9571 11.7421 33.102 11.8245L34.5987 12.6759C34.9113 12.8537 35.3022 12.6317 35.3022 12.2765L35.3015 8.43257C35.3032 8.22505 35.2482 8.01683 35.1428 7.83382C35.036 7.64892 34.8817 7.49591 34.6933 7.38859L34.501 7.28033L30.9747 5.27387L30.7825 5.16714L27.3136 3.19436C27.1575 3.08498 26.9347 3.0121 26.7088 3.00131C26.4761 2.99064 26.2466 3.04536 26.0437 3.1604L25.8492 3.27378L22.5155 5.16785C22.3871 5.23987 22.387 5.23991 22.3239 5.27549L22.3238 5.27556L22.1337 5.38504L18.6532 7.36456C18.4747 7.44949 18.3029 7.60479 18.1843 7.79379C18.0644 7.98217 18 8.20133 18 8.42578V12.6539L18.0009 16.8752C17.9989 17.0821 18.0539 17.2903 18.1595 17.4738C18.2664 17.6587 18.421 17.8119 18.6095 17.919L18.8007 18.0269C21.2079 19.3967 22.3157 20.027 22.3294 20.0347L22.521 20.1411L23.3222 20.6473C23.6396 20.8358 24.0382 20.6144 24.0382 20.2553ZM33.57 13.804C33.2575 13.6268 32.8672 13.8488 32.8672 14.2037V14.6346L25.134 10.237L24.8741 10.088C24.6386 9.95427 24.348 9.96826 24.1288 10.1218L23.9231 10.2361L22.7818 10.8825L22.3216 11.1425C21.987 11.3329 21.8823 11.7498 22.0784 12.0826L22.3401 12.5267L22.6041 12.9757C22.798 13.3048 23.2224 13.4074 23.5595 13.2134C24.0083 12.9585 24.0289 12.9468 24.0484 12.9334C24.0497 12.9326 24.0509 12.9317 24.0523 12.9307L24.5262 12.6626L25.4634 13.1957L25.4625 21.4737C25.4625 21.8482 25.7709 22.152 26.1515 22.152C26.326 22.152 26.4929 22.0871 26.6203 21.971L27.646 21.1556C27.8252 21.0135 27.9194 20.7937 27.8999 20.5691L27.9013 14.5828L33.4628 17.7555C33.8094 17.952 34.1979 17.8195 34.4625 17.4867L35.1681 16.7788C35.2537 16.6925 35.3015 16.5769 35.3015 16.4565V15.052C35.3015 14.8871 35.212 14.7347 35.0667 14.6523L33.57 13.804Z" fill="#0EBAC5" style="fill:#0EBAC5;fill:color(display-p3 0.0549 0.7294 0.7725);fill-opacity:1;"/>
<path fill-rule="evenodd" clip-rule="evenodd" d="M40.294 16.5017C40.2063 16.5017 40.1295 16.4694 40.0636 16.405C39.998 16.3405 39.9648 16.2652 39.9648 16.1792V7.79413C39.9648 7.69969 39.998 7.62221 40.0636 7.56208C40.1295 7.50176 40.2063 7.47169 40.294 7.47169H42.1367C42.2332 7.47169 42.3121 7.50176 42.3736 7.56208C42.435 7.62221 42.4656 7.69969 42.4656 7.79413V14.4765H46.4142C46.5106 14.4765 46.5919 14.5086 46.6576 14.5732C46.7235 14.6377 46.7564 14.7172 46.7564 14.8118V16.1792C46.7564 16.2739 46.7235 16.3513 46.6576 16.4115C46.5919 16.4716 46.5106 16.5017 46.4142 16.5017H40.294ZM47.3487 16.5017C47.2785 16.5017 47.2147 16.4738 47.1579 16.4177C47.1007 16.3618 47.0722 16.2995 47.0722 16.2307C47.0722 16.1792 47.0768 16.1405 47.0854 16.1147L50.1521 7.84578C50.2398 7.59639 50.4152 7.47169 50.6785 7.47169H52.7318C52.9949 7.47169 53.1705 7.59639 53.2582 7.84578L56.3249 16.1147C56.3337 16.1405 56.3381 16.1792 56.3381 16.2307C56.3381 16.2995 56.3094 16.3618 56.2524 16.4177C56.1954 16.4738 56.1318 16.5017 56.0616 16.5017H54.3505C54.1401 16.5017 53.9908 16.407 53.9031 16.2178L53.4292 14.9666H49.981L49.5072 16.2178C49.4195 16.407 49.2702 16.5017 49.0596 16.5017H47.3487ZM50.5331 13.0316H52.8758L51.7044 9.74194L50.5331 13.0316ZM57.6802 16.5017C57.5837 16.5017 57.5026 16.4716 57.4367 16.4115C57.371 16.3513 57.3381 16.2739 57.3381 16.1792V7.80704C57.3381 7.7126 57.371 7.63291 57.4367 7.56854C57.5026 7.50398 57.5837 7.47169 57.6802 7.47169H59.1676C59.3868 7.47169 59.5449 7.56632 59.6413 7.75539L61.9051 11.7286L64.1821 7.75539C64.2785 7.56632 64.4366 7.47169 64.6558 7.47169H66.1432C66.2397 7.47169 66.3208 7.50398 66.3867 7.56854C66.4524 7.63291 66.4853 7.7126 66.4853 7.80704V16.1792C66.4853 16.2739 66.4524 16.3513 66.3867 16.4115C66.3208 16.4716 66.2397 16.5017 66.1432 16.5017H64.4716C64.3839 16.5017 64.3071 16.4694 64.2412 16.405C64.1756 16.3405 64.1426 16.2652 64.1426 16.1792V11.4835L62.7211 14.0379C62.6071 14.2356 62.4535 14.3345 62.2604 14.3345H61.5498C61.3742 14.3345 61.2206 14.2356 61.0891 14.0379L59.6808 11.4835V16.1792C59.6808 16.2739 59.6479 16.3513 59.5822 16.4115C59.5163 16.4716 59.4352 16.5017 59.3386 16.5017H57.6802ZM68.604 16.5017C68.5163 16.5017 68.4395 16.4694 68.3739 16.405C68.308 16.3405 68.2751 16.2652 68.2751 16.1792V7.80704C68.2751 7.7126 68.3057 7.63291 68.3671 7.56854C68.4286 7.50398 68.5077 7.47169 68.604 7.47169H72.671C73.7853 7.47169 74.6145 7.69526 75.1586 8.14257C75.7025 8.5897 75.9747 9.22608 75.9747 10.0517C75.9747 10.4645 75.8627 10.8215 75.6391 11.1223C75.4153 11.4233 75.1673 11.6427 74.8953 11.7803C75.2552 11.935 75.5578 12.1909 75.8036 12.5478C76.0492 12.9047 76.1721 13.3069 76.1721 13.754C76.1721 14.6224 75.8802 15.2977 75.2968 15.7793C74.7134 16.2608 73.8776 16.5017 72.7894 16.5017H68.604ZM72.395 11.0448C72.7197 11.0448 72.9698 10.9589 73.1454 10.7868C73.3208 10.6147 73.4087 10.3913 73.4087 10.1161C73.4087 9.84933 73.3231 9.63223 73.152 9.46455C72.9809 9.2967 72.7285 9.21295 72.395 9.21295H70.75V11.0448H72.395ZM72.5136 14.76C72.8558 14.76 73.1213 14.6631 73.3099 14.4696C73.4985 14.2763 73.5929 14.0376 73.5929 13.7537C73.5929 13.4614 73.4964 13.2184 73.3033 13.0248C73.1102 12.8314 72.8471 12.7346 72.5136 12.7346H70.75V14.76H72.5136ZM77.9107 16.5017C77.8228 16.5017 77.7462 16.4694 77.6803 16.405C77.6144 16.3405 77.5815 16.2652 77.5815 16.1792V7.80704C77.5815 7.7126 77.6124 7.63291 77.6737 7.56854C77.7351 7.50398 77.8141 7.47169 77.9107 7.47169H81.3722C82.6708 7.47169 83.6797 7.77476 84.3994 8.38126C85.1187 8.98739 85.4962 9.85822 85.5311 10.9934C85.5399 11.2428 85.5444 11.5739 85.5444 11.9867C85.5444 12.3995 85.5399 12.7262 85.5311 12.9671C85.4434 15.3233 84.0789 16.5017 81.4379 16.5017H77.9107ZM81.371 14.5664C81.9235 14.5664 82.3315 14.4375 82.595 14.1794C82.8581 13.9215 82.9985 13.5085 83.016 12.941C83.0337 12.6916 83.0424 12.3691 83.0424 11.9735C83.0424 11.5778 83.0337 11.2596 83.016 11.0189C82.9985 10.4685 82.847 10.0621 82.5621 9.79983C82.2768 9.53753 81.858 9.40638 81.3051 9.40638H80.0547V14.5664H81.371ZM86.5304 16.5017C86.4603 16.5017 86.3966 16.4738 86.3396 16.4177C86.2824 16.3618 86.254 16.2995 86.254 16.2307C86.254 16.1792 86.2583 16.1405 86.2672 16.1147L89.3337 7.84578C89.4216 7.59639 89.5972 7.47169 89.8603 7.47169H91.9135C92.1768 7.47169 92.3522 7.59639 92.4399 7.84578L95.5066 16.1147C95.5155 16.1405 95.5196 16.1792 95.5196 16.2307C95.5196 16.2995 95.4912 16.3618 95.4342 16.4177C95.3773 16.4738 95.3137 16.5017 95.2433 16.5017H93.5324C93.3218 16.5017 93.1726 16.407 93.0849 16.2178L92.611 14.9666H89.1626L88.6887 16.2178C88.6012 16.407 88.4522 16.5017 88.2416 16.5017H86.5304ZM89.7157 13.0316H92.0584L90.8871 9.74194L89.7157 13.0316Z" fill="#0EBAC5" style="fill:#0EBAC5;fill:color(display-p3 0.0549 0.7294 0.7725);fill-opacity:1;"/>
<path fill-rule="evenodd" clip-rule="evenodd" d="M98.2508 16.6302C98.1543 16.6302 98.0734 16.6002 98.0073 16.54C97.9414 16.4799 97.9087 16.4024 97.9087 16.3078V9.7029H95.5923C95.4958 9.7029 95.4147 9.67283 95.3488 9.6127C95.2829 9.55238 95.25 9.47509 95.25 9.38047V7.9356C95.25 7.84116 95.2829 7.76147 95.3488 7.6971C95.4147 7.63254 95.4958 7.60026 95.5923 7.60026H102.739C102.835 7.60026 102.917 7.63254 102.983 7.6971C103.048 7.76147 103.081 7.84116 103.081 7.9356V9.38047C103.081 9.47509 103.048 9.55238 102.983 9.6127C102.917 9.67283 102.835 9.7029 102.739 9.7029H100.422V16.3078C100.422 16.4024 100.39 16.4799 100.324 16.54C100.258 16.6002 100.177 16.6302 100.081 16.6302H98.2508ZM104.568 16.6302C104.48 16.6302 104.404 16.598 104.338 16.5336C104.272 16.469 104.239 16.3938 104.239 16.3078V7.9356C104.239 7.84116 104.27 7.76147 104.331 7.6971C104.393 7.63254 104.472 7.60026 104.568 7.60026H110.78C110.877 7.60026 110.958 7.63254 111.024 7.6971C111.09 7.76147 111.123 7.84116 111.123 7.9356V9.21279C111.123 9.30742 111.09 9.38471 111.024 9.44484C110.958 9.50516 110.877 9.53523 110.78 9.53523H106.621V11.1736H110.491C110.587 11.1736 110.668 11.2059 110.734 11.2702C110.8 11.3348 110.833 11.4143 110.833 11.5089V12.6828C110.833 12.7775 110.8 12.857 110.734 12.9215C110.668 12.9859 110.587 13.0184 110.491 13.0184H106.621V14.6953H110.886C110.982 14.6953 111.063 14.7275 111.129 14.7919C111.195 14.8565 111.228 14.936 111.228 15.0306V16.3078C111.228 16.4024 111.195 16.4799 111.129 16.54C111.063 16.6002 110.982 16.6302 110.886 16.6302H104.568ZM116.176 16.7594C115.325 16.7594 114.601 16.6392 114.004 16.3983C113.408 16.1576 112.956 15.8394 112.649 15.4435C112.341 15.0482 112.179 14.6181 112.162 14.1536C112.162 14.0763 112.19 14.0118 112.247 13.9601C112.304 13.9086 112.372 13.8828 112.451 13.8828H114.202C114.307 13.8828 114.392 13.9 114.458 13.9345C114.524 13.9688 114.596 14.0289 114.675 14.1149C114.79 14.3213 114.967 14.4912 115.208 14.6245C115.45 14.7579 115.772 14.8245 116.176 14.8245C116.65 14.8245 117.014 14.7535 117.268 14.6118C117.523 14.4698 117.65 14.2742 117.65 14.0247C117.65 13.8443 117.584 13.6958 117.453 13.5798C117.321 13.4635 117.11 13.3602 116.821 13.2701C116.531 13.1799 116.114 13.0788 115.57 12.967C114.509 12.7606 113.715 12.4466 113.188 12.0251C112.662 11.6038 112.399 11.0018 112.399 10.2193C112.399 9.68603 112.55 9.21086 112.853 8.7938C113.155 8.37656 113.585 8.05209 114.142 7.81986C114.7 7.58763 115.347 7.4716 116.084 7.4716C116.856 7.4716 117.525 7.60275 118.091 7.86487C118.657 8.12735 119.091 8.45403 119.394 8.84526C119.697 9.23668 119.857 9.62146 119.874 9.99997C119.874 10.0773 119.848 10.144 119.795 10.1999C119.743 10.2558 119.677 10.2837 119.598 10.2837H117.755C117.562 10.2837 117.413 10.2064 117.308 10.0514C117.255 9.87085 117.119 9.71831 116.9 9.59361C116.681 9.46892 116.408 9.40657 116.084 9.40657C115.715 9.40657 115.43 9.47113 115.228 9.60007C115.026 9.729 114.925 9.91826 114.925 10.1676C114.925 10.417 115.057 10.6127 115.32 10.7546C115.584 10.8966 116.075 11.0405 116.794 11.1868C117.619 11.3329 118.275 11.5157 118.762 11.735C119.249 11.9541 119.609 12.2382 119.841 12.5863C120.074 12.9347 120.19 13.3756 120.19 13.9086C120.19 14.4934 120.019 15.0008 119.677 15.4308C119.335 15.8608 118.861 16.1897 118.255 16.4176C117.65 16.6456 116.957 16.7594 116.176 16.7594ZM123.823 16.6302C123.727 16.6302 123.645 16.6002 123.58 16.54C123.514 16.4799 123.481 16.4024 123.481 16.3078V9.7029H121.165C121.068 9.7029 120.987 9.67283 120.921 9.6127C120.855 9.55238 120.823 9.47509 120.823 9.38047V7.9356C120.823 7.84116 120.855 7.76147 120.921 7.6971C120.987 7.63254 121.068 7.60026 121.165 7.60026H128.311C128.408 7.60026 128.489 7.63254 128.555 7.6971C128.621 7.76147 128.654 7.84116 128.654 7.9356V9.38047C128.654 9.47509 128.621 9.55238 128.555 9.6127C128.489 9.67283 128.408 9.7029 128.311 9.7029H125.995V16.3078C125.995 16.4024 125.962 16.4799 125.896 16.54C125.83 16.6002 125.749 16.6302 125.653 16.6302H123.823Z" fill="black" style="fill:black;fill:black;fill-opacity:1;"/>
</svg>
