<svg width="164" height="28" viewBox="0 0 164 28" fill="none" xmlns="http://www.w3.org/2000/svg">
<rect width="164" height="28" stroke="black" style="stroke:black;stroke:black;stroke-opacity:1;"/>
<path fill-rule="evenodd" clip-rule="evenodd" d="M27.6687 22.0573V20.1853C27.6687 20.0256 27.5928 19.8762 27.4653 19.7805L27.4079 19.7048L27.3385 19.6442C27.1238 19.5223 27.0775 19.4962 27.0559 19.4856L23.6888 17.5696V9.75434L26.9113 7.9231C26.9113 7.9231 27.1371 7.79418 27.1488 7.78713L27.1488 7.7871C27.168 7.7751 27.168 7.77508 27.2002 7.75427L30.5544 5.84781L33.7783 7.68412C33.9603 7.78791 34.0258 7.82471 34.0549 7.8389L37.4205 9.75415V12.305C37.4205 12.4869 37.5191 12.655 37.6791 12.746L39.3321 13.6863C39.6773 13.8827 40.1091 13.6376 40.109 13.2452L40.1082 8.99989C40.1102 8.77069 40.0494 8.54073 39.933 8.33861C39.815 8.1344 39.6447 7.96542 39.4366 7.84688L39.2242 7.72732L35.3297 5.51133L35.1174 5.39345L31.2862 3.21465C31.1138 3.09386 30.8678 3.01336 30.6183 3.00145C30.3613 2.98966 30.1078 3.0501 29.8836 3.17715L29.6689 3.30237L25.9871 5.39424C25.8919 5.44756 25.8606 5.46516 25.8292 5.48281C25.8138 5.4915 25.7983 5.5002 25.7753 5.51319L25.5654 5.63411L21.7214 7.82035C21.5243 7.91414 21.3346 8.08566 21.2036 8.2944C21.0711 8.50245 21 8.74449 21 8.99238V13.662L21.001 18.3241C20.9987 18.5526 21.0595 18.7826 21.1762 18.9853C21.2942 19.1895 21.465 19.3587 21.6732 19.477L21.8844 19.5962C24.5429 21.109 25.7664 21.8051 25.7815 21.8136L25.9932 21.9311L26.878 22.4902C27.2285 22.6984 27.6687 22.4539 27.6687 22.0573ZM38.1962 14.9321C37.8511 14.7365 37.42 14.9816 37.42 15.3736V15.8495L28.8792 10.9926L28.5922 10.8281C28.3321 10.6804 28.0112 10.6958 27.7691 10.8654L27.5418 10.9916L26.2815 11.7055L25.7732 11.9927C25.4036 12.203 25.288 12.6634 25.5045 13.031L25.7935 13.5215L26.0851 14.0173C26.2993 14.3808 26.768 14.4941 27.1403 14.2798C27.6359 13.9983 27.6587 13.9854 27.6803 13.9707C27.6817 13.9697 27.6831 13.9687 27.6846 13.9676L28.2079 13.6716L29.243 14.2603L29.242 23.4028C29.242 23.8164 29.5827 24.1519 30.0029 24.1519C30.1957 24.1519 30.38 24.0803 30.5208 23.952L31.6535 23.0514C31.8514 22.8945 31.9555 22.6518 31.9339 22.4037L31.9355 15.7923L38.0778 19.2963C38.4606 19.5133 38.8897 19.367 39.1819 18.9994L39.9612 18.2176C40.0558 18.1222 40.1086 17.9946 40.1086 17.8617V16.3105C40.1086 16.1283 40.0097 15.96 39.8492 15.869L38.1962 14.9321Z" fill="#0EBAC5" style="fill:#0EBAC5;fill:color(display-p3 0.0549 0.7294 0.7725);fill-opacity:1;"/>
<path fill-rule="evenodd" clip-rule="evenodd" d="M45.6213 17.9115C45.5245 17.9115 45.4397 17.8759 45.3669 17.8048C45.2944 17.7335 45.2578 17.6504 45.2578 17.5554V8.29467C45.2578 8.19037 45.2944 8.1048 45.3669 8.03839C45.4397 7.97177 45.5245 7.93857 45.6213 7.93857H47.6564C47.7631 7.93857 47.8502 7.97177 47.9181 8.03839C47.9859 8.1048 48.0198 8.19037 48.0198 8.29467V15.6749H52.3807C52.4871 15.6749 52.5769 15.7103 52.6495 15.7816C52.7222 15.8529 52.7586 15.9407 52.7586 16.0452V17.5554C52.7586 17.6599 52.7222 17.7455 52.6495 17.8119C52.5769 17.8783 52.4871 17.9115 52.3807 17.9115H45.6213ZM53.4124 17.9115C53.3349 17.9115 53.2644 17.8808 53.2016 17.8188C53.1385 17.7571 53.1071 17.6883 53.1071 17.6123C53.1071 17.5554 53.1121 17.5126 53.1216 17.4841L56.5086 8.35171C56.6054 8.07628 56.7992 7.93857 57.09 7.93857H59.3576C59.6482 7.93857 59.8421 8.07628 59.939 8.35171L63.326 17.4841C63.3357 17.5126 63.3405 17.5554 63.3405 17.6123C63.3405 17.6883 63.3089 17.7571 63.2459 17.8188C63.183 17.8808 63.1127 17.9115 63.0352 17.9115H61.1454C60.913 17.9115 60.7482 17.807 60.6513 17.598L60.1279 16.2162H56.3197L55.7963 17.598C55.6994 17.807 55.5346 17.9115 55.302 17.9115H53.4124ZM56.93 14.079H59.5173L58.2236 10.4459L56.93 14.079ZM64.8232 17.9115C64.7166 17.9115 64.627 17.8783 64.5543 17.8119C64.4817 17.7455 64.4454 17.6599 64.4454 17.5554V8.30893C64.4454 8.20463 64.4817 8.11662 64.5543 8.04552C64.627 7.97422 64.7166 7.93857 64.8232 7.93857H66.4659C66.7081 7.93857 66.8827 8.04308 66.9891 8.25189L69.4893 12.64L72.0041 8.25189C72.1106 8.04308 72.2852 7.93857 72.5273 7.93857H74.17C74.2766 7.93857 74.3662 7.97422 74.4389 8.04552C74.5115 8.11662 74.5478 8.20463 74.5478 8.30893V17.5554C74.5478 17.6599 74.5115 17.7455 74.4389 17.8119C74.3662 17.8783 74.2766 17.9115 74.17 17.9115H72.3238C72.227 17.9115 72.1422 17.8759 72.0694 17.8048C71.9969 17.7335 71.9605 17.6504 71.9605 17.5554V12.3693L70.3906 15.1904C70.2646 15.4088 70.095 15.518 69.8818 15.518H69.0969C68.903 15.518 68.7334 15.4088 68.5881 15.1904L67.0327 12.3693V17.5554C67.0327 17.6599 66.9963 17.7455 66.9238 17.8119C66.8511 17.8783 66.7615 17.9115 66.6548 17.9115H64.8232ZM76.8878 17.9115C76.791 17.9115 76.7062 17.8759 76.6336 17.8048C76.5609 17.7335 76.5245 17.6504 76.5245 17.5554V8.30893C76.5245 8.20463 76.5584 8.11662 76.6261 8.04552C76.6941 7.97422 76.7814 7.93857 76.8878 7.93857H81.3795C82.6102 7.93857 83.526 8.18548 84.1269 8.6795C84.7276 9.17332 85.0282 9.87616 85.0282 10.788C85.0282 11.2439 84.9045 11.6381 84.6576 11.9704C84.4104 12.3029 84.1365 12.5451 83.8361 12.6971C84.2336 12.868 84.5678 13.1506 84.8392 13.5448C85.1105 13.939 85.2462 14.3831 85.2462 14.8769C85.2462 15.836 84.9238 16.5818 84.2795 17.1138C83.6351 17.6455 82.7121 17.9115 81.5103 17.9115H76.8878ZM81.0745 11.8848C81.433 11.8848 81.7093 11.7898 81.9032 11.5998C82.0969 11.4097 82.194 11.163 82.194 10.859C82.194 10.5644 82.0994 10.3247 81.9105 10.1395C81.7215 9.9541 81.4428 9.86161 81.0745 9.86161H79.2576V11.8848H81.0745ZM81.2054 15.988C81.5833 15.988 81.8766 15.881 82.0849 15.6673C82.2931 15.4538 82.3975 15.1902 82.3975 14.8767C82.3975 14.5538 82.2908 14.2855 82.0776 14.0716C81.8643 13.8581 81.5737 13.7511 81.2054 13.7511H79.2576V15.988H81.2054ZM87.1658 17.9115C87.0688 17.9115 86.9842 17.8759 86.9114 17.8048C86.8387 17.7335 86.8023 17.6504 86.8023 17.5554V8.30893C86.8023 8.20463 86.8364 8.11662 86.9041 8.04552C86.9719 7.97422 87.0592 7.93857 87.1658 7.93857H90.9889C92.423 7.93857 93.5373 8.27328 94.3322 8.94312C95.1266 9.61254 95.5435 10.5743 95.582 11.828C95.5918 12.1034 95.5968 12.4691 95.5968 12.925C95.5968 13.381 95.5918 13.7418 95.582 14.0078C95.4851 16.6102 93.9782 17.9115 91.0614 17.9115H87.1658ZM90.9883 15.7742C91.5986 15.7742 92.0492 15.6318 92.3402 15.3468C92.6308 15.062 92.7858 14.6059 92.8052 13.979C92.8247 13.7036 92.8343 13.3475 92.8343 12.9105C92.8343 12.4735 92.8247 12.1221 92.8052 11.8563C92.7858 11.2484 92.6185 10.7996 92.3038 10.5099C91.9887 10.2202 91.5262 10.0753 90.9156 10.0753H89.5346V15.7742H90.9883ZM96.6864 17.9115C96.6088 17.9115 96.5386 17.8808 96.4756 17.8188C96.4124 17.7571 96.381 17.6883 96.381 17.6123C96.381 17.5554 96.3858 17.5126 96.3956 17.4841L99.7823 8.35171C99.8794 8.07628 100.073 7.93857 100.364 7.93857H102.632C102.922 7.93857 103.116 8.07628 103.213 8.35171L106.6 17.4841C106.61 17.5126 106.614 17.5554 106.614 17.6123C106.614 17.6883 106.583 17.7571 106.52 17.8188C106.457 17.8808 106.387 17.9115 106.309 17.9115H104.42C104.187 17.9115 104.022 17.807 103.925 17.598L103.402 16.2162H99.5934L99.07 17.598C98.9734 17.807 98.8088 17.9115 98.5762 17.9115H96.6864ZM100.204 14.079H102.791L101.498 10.4459L100.204 14.079Z" fill="#0EBAC5" style="fill:#0EBAC5;fill:color(display-p3 0.0549 0.7294 0.7725);fill-opacity:1;"/>
<path fill-rule="evenodd" clip-rule="evenodd" d="M109.635 18.0537C109.528 18.0537 109.439 18.0205 109.366 17.9541C109.293 17.8877 109.257 17.8021 109.257 17.6976V10.403H106.698C106.592 10.403 106.502 10.3698 106.429 10.3033C106.357 10.2367 106.32 10.1514 106.32 10.0469V8.45111C106.32 8.3468 106.357 8.25879 106.429 8.18769C106.502 8.11639 106.592 8.08074 106.698 8.08074H114.591C114.698 8.08074 114.788 8.11639 114.86 8.18769C114.933 8.25879 114.969 8.3468 114.969 8.45111V10.0469C114.969 10.1514 114.933 10.2367 114.86 10.3033C114.788 10.3698 114.698 10.403 114.591 10.403H112.033V17.6976C112.033 17.8021 111.997 17.8877 111.924 17.9541C111.851 18.0205 111.762 18.0537 111.655 18.0537H109.635ZM116.611 18.0537C116.515 18.0537 116.43 18.0181 116.357 17.947C116.284 17.8756 116.248 17.7925 116.248 17.6976V8.45111C116.248 8.3468 116.282 8.25879 116.35 8.18769C116.418 8.11639 116.505 8.08074 116.611 8.08074H123.472C123.579 8.08074 123.669 8.11639 123.741 8.18769C123.814 8.25879 123.85 8.3468 123.85 8.45111V9.86167C123.85 9.96618 123.814 10.0515 123.741 10.118C123.669 10.1846 123.579 10.2178 123.472 10.2178H118.879V12.0272H123.153C123.259 12.0272 123.349 12.0629 123.422 12.134C123.494 12.2053 123.53 12.2931 123.53 12.3976V13.6941C123.53 13.7986 123.494 13.8864 123.422 13.9577C123.349 14.0288 123.259 14.0646 123.153 14.0646H118.879V15.9167H123.589C123.695 15.9167 123.785 15.9523 123.858 16.0234C123.93 16.0947 123.967 16.1825 123.967 16.287V17.6976C123.967 17.8021 123.93 17.8877 123.858 17.9541C123.785 18.0205 123.695 18.0537 123.589 18.0537H116.611ZM129.432 18.1963C128.492 18.1963 127.692 18.0635 127.033 17.7974C126.374 17.5316 125.875 17.1802 125.536 16.743C125.197 16.3064 125.018 15.8313 124.999 15.3184C124.999 15.233 125.03 15.1617 125.093 15.1047C125.156 15.0478 125.231 15.0193 125.318 15.0193H127.251C127.368 15.0193 127.462 15.0382 127.535 15.0763C127.608 15.1142 127.688 15.1806 127.775 15.2756C127.901 15.5035 128.097 15.6912 128.363 15.8385C128.63 15.9858 128.986 16.0593 129.432 16.0593C129.955 16.0593 130.357 15.9809 130.638 15.8244C130.919 15.6675 131.06 15.4516 131.06 15.176C131.06 14.9767 130.987 14.8127 130.842 14.6846C130.697 14.5562 130.464 14.4422 130.144 14.3425C129.824 14.2429 129.364 14.1313 128.763 14.0078C127.591 13.7799 126.714 13.4331 126.132 12.9676C125.551 12.5023 125.26 11.8374 125.26 10.9732C125.26 10.3842 125.427 9.85945 125.762 9.39884C126.096 8.93802 126.571 8.57968 127.186 8.32319C127.801 8.06671 128.516 7.93857 129.33 7.93857C130.183 7.93857 130.922 8.08341 131.547 8.3729C132.172 8.6628 132.652 9.02359 132.986 9.45568C133.32 9.88797 133.497 10.3129 133.517 10.731C133.517 10.8163 133.487 10.8901 133.429 10.9518C133.371 11.0135 133.298 11.0443 133.211 11.0443H131.176C130.963 11.0443 130.798 10.9589 130.682 10.7878C130.624 10.5884 130.474 10.4199 130.231 10.2822C129.989 10.1445 129.689 10.0756 129.33 10.0756C128.923 10.0756 128.608 10.1469 128.385 10.2893C128.162 10.4317 128.051 10.6407 128.051 10.9162C128.051 11.1916 128.197 11.4077 128.487 11.5644C128.778 11.7213 129.321 11.8802 130.115 12.0417C131.026 12.2031 131.75 12.4049 132.288 12.6472C132.826 12.8892 133.223 13.2029 133.48 13.5873C133.737 13.9722 133.865 14.4591 133.865 15.0478C133.865 15.6936 133.676 16.2541 133.298 16.7289C132.921 17.2038 132.397 17.567 131.729 17.8188C131.06 18.0706 130.294 18.1963 129.432 18.1963ZM137.878 18.0537C137.771 18.0537 137.681 18.0205 137.609 17.9541C137.536 17.8877 137.5 17.8021 137.5 17.6976V10.403H134.942C134.835 10.403 134.746 10.3698 134.673 10.3033C134.6 10.2367 134.564 10.1514 134.564 10.0469V8.45111C134.564 8.3468 134.6 8.25879 134.673 8.18769C134.746 8.11639 134.835 8.08074 134.942 8.08074H142.835C142.941 8.08074 143.031 8.11639 143.104 8.18769C143.176 8.25879 143.213 8.3468 143.213 8.45111V10.0469C143.213 10.1514 143.176 10.2367 143.104 10.3033C143.031 10.3698 142.941 10.403 142.835 10.403H140.276V17.6976C140.276 17.8021 140.24 17.8877 140.167 17.9541C140.095 18.0205 140.005 18.0537 139.899 18.0537H137.878Z" fill="black" style="fill:black;fill:black;fill-opacity:1;"/>
</svg>
